<svg height="384pt" viewBox="-16 0 384 384" width="384pt" xmlns="http://www.w3.org/2000/svg"><path d="m176 176c-53.039062 0-96 25.761719-96 57.601562 0 4.636719.878906 9.117188 2.640625 13.359376 10 25.359374 48 44.238281 93.359375 44.238281 44.71875 0 82.320312-18.320313 92.960938-43.199219 2-4.558594 3.039062-9.441406 3.039062-14.398438 0-31.839843-42.960938-57.601562-96-57.601562zm0 0" fill="#cce4ff"/><path d="m240 16v96h96v-24l-72-72zm0 0" fill="#cce4ff"/><g fill="#007aff"><path d="m176 160c-61.984375 0-110.617188 31.503906-111.878906 72h-.121094v78.398438c0 41.273437 49.191406 73.601562 112 73.601562s112-32.328125 112-73.601562v-78.398438h-.121094c-1.261718-40.496094-49.894531-72-111.878906-72zm80 150.398438c0 19.679687-32.855469 41.601562-80 41.601562s-80-21.921875-80-41.601562v-24.742188c20.320312 13.519531 48.59375 21.550781 80 21.550781 31.265625 0 59.632812-8.054687 80-21.566406zm-1.753906-68.6875c-6.941406 16.234374-36.726563 33.488281-78.246094 33.488281-42.230469 0-71.953125-17.574219-78.480469-34.109375l-.105469-.265625c-.949218-2.296875-1.414062-4.65625-1.414062-7.222657 0-19.679687 32.855469-41.601562 80-41.601562s80 21.921875 80 41.601562c0 2.726563-.566406 5.414063-1.753906 8.109376zm0 0"/><path d="m256 0h-256v384h32v-352h192v96h96v256h32v-302.625l-81.367188-81.375zm64 96h-64v-64h1.367188l62.632812 62.625zm0 0"/></g></svg>