<svg height="384pt" viewBox="-32 0 384 384" width="384pt" xmlns="http://www.w3.org/2000/svg"><path d="m160 368c26.480469 0 48-21.519531 48-48v-16h-96v16c0 26.480469 21.519531 48 48 48zm0 0" fill="#cce4ff"/><path d="m272 192c0-44.640625-26.160156-83.199219-64-101.199219-1.441406-.722656-2.960938-1.359375-4.480469-2-1.597656-.722656-3.359375-1.359375-5.039062-2-1.601563-.5625-3.121094-1.121093-4.71875-1.601562-.242188-.078125-.480469-.160157-.800781-.238281-1.359376-.402344-2.722657-.800782-4.082032-1.121094-1.359375-.398438-2.800781-.800782-4.238281-1.121094-1.921875-.398438-3.839844-.796875-5.761719-1.117188-2.078125-.402343-4.160156-.640624-6.238281-.882812-1.28125-.160156-2.5625-.320312-3.921875-.320312-.957031-.160157-2-.238282-2.957031-.238282-1.921875-.082031-3.839844-.160156-5.761719-.160156s-3.839844.078125-5.761719.160156c-.957031 0-2 .078125-2.957031.238282-1.359375 0-2.640625.160156-3.921875.320312-2.078125.242188-4.160156.480469-6.238281.882812-1.921875.320313-3.839844.71875-5.761719 1.117188-1.4375.320312-2.878906.722656-4.238281 1.121094-1.359375.320312-2.722656.71875-4.082032 1.121094-.320312.078124-.558593.160156-.800781.238281-1.597656.480469-3.117187 1.039062-4.71875 1.601562-1.679687.640625-3.441406 1.277344-5.039062 2-1.519531.640625-3.039063 1.277344-4.480469 2-37.839844 18-64 56.558594-64 101.199219v48h224zm0 0" fill="#cce4ff"/><path d="m96 0v81.320312c-38.191406 22.175782-64 63.421876-64 110.679688v80c0 8.824219-7.175781 16-16 16h-16v32h96c0 35.289062 28.710938 64 64 64s64-28.710938 64-64h96v-32h-16c-8.824219 0-16-7.175781-16-16v-80c0-47.257812-25.808594-88.503906-64-110.679688v-81.320312zm32 68.015625v-36.015625h64v36.015625c-1.945312-.503906-3.910156-.910156-5.878906-1.320313-.175782-.039062-.351563-.078124-.527344-.121093-3.867188-.78125-7.769531-1.375-11.722656-1.789063-.640625-.074218-1.277344-.121094-1.925782-.183594-3.945312-.363281-7.921874-.601562-11.945312-.601562s-8 .238281-11.953125.609375c-.640625.0625-1.285156.109375-1.925781.183594-3.945313.421875-7.855469 1.007812-11.722656 1.792969-.175782.039062-.351563.078124-.527344.117187-1.960938.402344-3.925782.808594-5.871094 1.3125zm32 283.984375c-17.648438 0-32-14.351562-32-32h64c0 17.648438-14.351562 32-32 32zm-98.742188-64c1.773438-5.007812 2.742188-10.390625 2.742188-16v-16h192v16c0 5.609375.96875 10.992188 2.742188 16zm194.742188-96v32h-192v-32c0-38.960938 23.367188-72.503906 56.785156-87.535156 1.703125-.769532 3.4375-1.457032 5.183594-2.121094 1.367188-.519531 2.734375-1.054688 4.136719-1.519531 2.09375-.6875 4.222656-1.257813 6.359375-1.792969 1.039062-.261719 2.0625-.574219 3.121094-.800781 3.222656-.695313 6.476562-1.246094 9.757812-1.605469.023438 0 .054688-.007812.082031-.015625 7.023438-.769531 14.125-.769531 21.148438 0 .027343 0 .058593.007813.082031.015625 3.28125.359375 6.535156.910156 9.757812 1.605469 1.058594.234375 2.082032.539062 3.121094.800781 2.136719.535156 4.265625 1.105469 6.359375 1.792969 1.402344.457031 2.761719.992187 4.136719 1.519531 1.746094.664062 3.480469 1.351562 5.183594 2.121094 33.417968 15.03125 56.785156 48.574218 56.785156 87.535156zm0 0" fill="#007aff"/></svg>